# Blender v2.77 (sub 0) OBJ File: ''
# www.blender.org
mtllib zeft.mtl
o Cube
v 1.000000 -1.000000 -1.000000
v 1.000000 -1.000000 1.000000
v -1.000000 -1.000000 1.000000
v -1.000000 -1.000000 -1.000000
v 1.000000 1.000000 -0.999999
v 0.999999 1.000000 1.000001
v -1.000000 1.000000 1.000000
v -1.000000 1.000000 -1.000000
vt 0.5488 0.4597
vt 0.4813 0.4428
vt 0.4550 0.4764
vt 0.5170 0.4901
vt 0.5508 0.5267
vt 0.5170 0.5518
vt 0.4513 0.5402
vt 0.4789 0.5123
vn 0.0000 -1.0000 0.0000
vn 0.0000 1.0000 0.0000
vn 1.0000 0.0000 0.0000
vn -0.0000 -0.0000 1.0000
vn -1.0000 -0.0000 -0.0000
vn 0.0000 0.0000 -1.0000
usemtl Material.001
s off
f 1/1/1 2/2/1 3/3/1 4/4/1
f 5/5/2 8/6/2 7/7/2 6/8/2
f 1/1/3 5/5/3 6/8/3 2/2/3
f 2/2/4 6/8/4 7/7/4 3/3/4
f 3/3/5 7/7/5 8/6/5 4/4/5
f 5/5/6 1/1/6 4/4/6 8/6/6
